<svg width="144" height="90" viewBox="0 0 144 90" fill="none" xmlns="http://www.w3.org/2000/svg">
<path opacity="0.55" d="M92.9129 36.5957C96.4653 37.9255 95.4292 46.4961 93.801 50.3381C105.79 45.9053 106.679 21.5228 96.0213 24.1827C87.4955 26.3105 85.6601 37.4821 85.8081 42.8019C86.8442 39.4032 89.3605 35.2659 92.9129 36.5957Z" fill="url(#paint0_linear_1324_166)"/>
<path opacity="0.55" d="M83.0123 72.6333C98.6486 72.3003 108.638 59.5895 112.113 52.6512C91.6123 59.978 78.0898 50.986 73.8912 45.5742L59.1235 52.6512C59.2683 60.422 67.376 72.9664 83.0123 72.6333Z" fill="url(#paint1_linear_1324_166)"/>
<path opacity="0.55" d="M42.2026 82.7414L74.6731 41.8828L38.4218 58.7663L19.0728 82.7414H42.2026Z" fill="url(#paint2_linear_1324_166)"/>
<path opacity="0.55" d="M23.6401 47.6766C22.9296 37.0372 30.1529 29.0577 33.8533 26.3978C35.9848 42.7115 46.2867 43.8346 51.1713 42.357C52.3554 40.436 54.0132 36.1506 51.1713 34.3774C48.3294 32.6042 43.4744 33.6386 41.4022 34.3774L43.6224 21.9647C49.9872 21.2259 62.8943 22.142 63.6047 31.7175C64.3152 41.293 50.5792 56.6905 43.6224 63.1924C37.8497 62.7491 24.5282 60.9759 23.6401 47.6766Z" fill="url(#paint3_linear_1324_166)"/>
<path d="M27.1709 75.4651L46.6915 50.7196C45.981 50.9679 45.2527 51.1629 44.5156 51.3225C43.1746 51.5974 41.8602 51.7393 40.6079 51.7393C38.7074 51.7393 36.8779 51.4112 35.1816 50.7728C32.2687 49.6734 30.0218 47.5012 28.4853 44.2917C26.9756 41.1353 26.718 37.3229 27.7038 32.9607C29.1781 26.4795 32.8193 20.9382 38.512 16.514C44.2048 12.0986 50.6169 9.85547 57.5796 9.85547C64.5423 9.85547 70.2351 12.1163 74.0006 16.576C77.7928 21.0623 78.9296 26.7721 77.3843 33.5547C76.4607 37.6243 73.823 42.3854 69.3203 48.0953L47.7927 75.4651H27.1709ZM54.4268 26.3465C52.4819 26.3465 50.7412 27.0115 49.1071 28.3858C47.4552 29.7778 46.4161 31.4623 45.9454 33.5547C45.4925 35.5408 45.7234 37.1189 46.6382 38.3691C47.5352 39.5837 48.8495 40.1778 50.6702 40.1778C52.6151 40.1778 54.3558 39.5128 55.9899 38.1385C57.6418 36.7554 58.6809 35.062 59.1516 32.9696C59.6045 30.9835 59.3736 29.4054 58.4588 28.1552C57.5618 26.9406 56.2474 26.3465 54.4268 26.3465Z" fill="#565AFF"/>
<path d="M90.1113 66.12C88.8857 66.12 87.6335 66.0313 86.3813 65.8629C79.1876 64.8876 73.9389 61.4475 70.7862 55.6224C67.6689 49.8683 67.2426 43.1123 69.5162 35.5228C71.772 28.0043 75.9904 21.9487 82.074 17.5334C87.1184 13.8717 92.5713 12.0098 98.2818 12.0098C99.5074 12.0098 100.76 12.0984 102.012 12.2669C109.206 13.2422 114.445 16.6822 117.607 22.5073C120.724 28.2615 121.151 35.0263 118.877 42.6069C116.621 50.1254 112.403 56.181 106.319 60.5964C101.284 64.2581 95.8307 66.12 90.1202 66.12H90.1113ZM97.3937 26.5148C95.5642 26.5148 93.6815 27.4458 91.7987 29.2811C89.5163 31.5065 87.7933 34.521 86.6743 38.2536C85.5642 41.9508 85.4132 45.1338 86.2125 47.705C86.9496 50.0634 88.2285 51.2869 90.2356 51.5617C90.4932 51.5972 90.7418 51.6149 90.9994 51.6149C92.8289 51.6149 94.7117 50.684 96.5944 48.8487C98.8769 46.6233 100.6 43.6088 101.719 39.8761C102.829 36.1789 102.98 33.0049 102.181 30.4248C101.443 28.0664 100.165 26.8429 98.1575 26.568C97.9 26.5325 97.6513 26.5148 97.3937 26.5148Z" fill="#565AFF"/>
<g filter="url(#filter0_d_1324_166)">
<path d="M54.3184 24.748C52.1867 24.748 50.232 25.5088 48.4626 27.0391C46.6932 28.5693 45.5474 30.4799 45.0418 32.7883C44.5279 35.0966 44.8228 37.0072 45.9181 38.5374C47.0134 40.0677 48.6227 40.8285 50.7628 40.8285C52.9029 40.8285 54.8492 40.0677 56.6185 38.5374C58.3879 37.0072 59.5338 35.0966 60.0393 32.7883C60.5533 30.4799 60.2584 28.5693 59.163 27.0391C58.0677 25.5088 56.4584 24.748 54.3184 24.748ZM57.5706 32.209C57.183 33.964 56.3405 35.3819 54.984 36.549C53.6696 37.6816 52.2878 38.2349 50.7544 38.2349C49.0524 38.2349 48.3615 37.5778 47.9486 36.9986C47.3083 36.0994 47.1566 34.9064 47.5021 33.3589C47.8897 31.6038 48.7406 30.186 50.0887 29.0189C51.4031 27.8863 52.7849 27.333 54.3184 27.333C56.0203 27.333 56.7112 27.9901 57.1241 28.5693C57.7644 29.4684 57.9161 30.6615 57.5706 32.209Z" fill="url(#paint4_linear_1324_166)"/>
</g>
<g filter="url(#filter1_d_1324_166)">
<path d="M117.865 21.8913C114.486 15.7224 108.9 12.0844 101.252 11.0562C99.9441 10.8805 98.6278 10.7926 97.3382 10.7926C91.3349 10.7926 85.6072 12.7171 80.3242 16.5221C78.9813 17.4887 77.7539 18.5432 76.5888 19.6504C75.9218 18.2884 75.0769 17.0054 74.0452 15.7927C70.0074 11.065 64.1285 8.66602 56.5865 8.66602C49.0445 8.66602 42.6054 10.9859 36.6821 15.5467C30.7321 20.1338 26.9255 25.8632 25.378 32.6033C24.3196 37.2167 24.6131 41.2854 26.2496 44.6949C27.9305 48.1836 30.4386 50.5738 33.6848 51.7865C35.5348 52.4807 37.5181 52.8234 39.5904 52.8234C40.462 52.8234 41.3602 52.7619 42.2763 52.6389L26.7921 72.0593L23.3857 76.3301H47.4347L48.2352 75.3195L66.8856 51.848C67.3392 53.2628 67.9173 54.6424 68.6377 55.9605C72.0085 62.1206 77.6027 65.7674 85.2514 66.7868C86.5677 66.9625 87.884 67.0504 89.1647 67.0504C95.1681 67.0504 100.896 65.1259 106.17 61.3297C112.502 56.7778 116.896 50.5386 119.244 42.8056C121.627 34.9408 121.156 27.9019 117.865 21.8825V21.8913ZM75.1124 33.1832C74.3209 36.6367 72.0885 40.7669 68.4598 45.5561C68.3175 42.5068 68.7711 39.2554 69.8206 35.7931C71.0835 31.6279 72.9868 27.9722 75.486 24.7999C75.9396 27.3395 75.824 30.134 75.1213 33.1832H75.1124ZM46.1362 73.6938H28.8821L51.517 45.3101C49.1424 47.6563 46.3764 49.1502 43.2368 49.7917C41.9828 50.0465 40.7644 50.1783 39.5993 50.1783C37.8472 50.1783 36.1929 49.8884 34.6365 49.3084C32.0395 48.3418 30.0561 46.4261 28.6687 43.5525C27.2813 40.679 27.0589 37.2255 27.9839 33.1832C29.398 27.032 32.8488 21.8473 38.3185 17.6293C43.7972 13.4113 49.8806 11.3023 56.5865 11.3023C63.2925 11.3023 68.4865 13.3673 72.0174 17.4975C73.1291 18.798 73.9918 20.2041 74.6055 21.7243C71.2881 25.4766 68.8156 29.9231 67.2681 35.0462C65.8006 39.8881 65.4181 44.4137 66.103 48.579L46.1451 73.6938H46.1362ZM116.691 42.0587C114.512 49.2644 110.483 54.9763 104.604 59.2031C99.7662 62.683 94.6256 64.4229 89.1647 64.4229C87.9908 64.4229 86.8079 64.3439 85.6072 64.1857C78.8212 63.2806 73.9474 60.1258 70.9857 54.7127C70.0429 52.9904 69.3581 51.1713 68.9401 49.2644L69.3937 48.6933C74.0185 42.8759 76.74 37.9988 77.7183 33.7632C78.6878 29.554 78.6522 25.7314 77.6294 22.3218C78.9279 20.9949 80.342 19.7647 81.8985 18.6399C86.7367 15.16 91.8863 13.4201 97.3382 13.4201C98.5122 13.4201 99.6951 13.4992 100.896 13.6573C107.682 14.5625 112.556 17.726 115.517 23.1303C118.479 28.5346 118.87 34.8441 116.682 42.0499L116.691 42.0587Z" fill="url(#paint5_linear_1324_166)"/>
</g>
<g filter="url(#filter2_d_1324_166)">
<path d="M97.4737 24.8089C97.1698 24.7654 96.8573 24.748 96.5535 24.748C94.4005 24.748 92.2735 25.774 90.1727 27.8258C87.7679 30.1733 85.9882 33.2945 84.8249 37.1895C83.6616 41.0846 83.514 44.4319 84.3822 47.214C85.2503 50.0049 86.9171 51.5611 89.3826 51.9002C89.6865 51.9437 89.999 51.9611 90.3029 51.9611C92.4559 51.9611 94.5828 50.9352 96.6837 48.8833C99.0884 46.5359 100.868 43.4146 102.031 39.5196C103.195 35.6246 103.342 32.2773 102.474 29.4951C101.606 26.7043 99.9392 25.148 97.4737 24.8089ZM99.5398 38.7719C98.5068 42.2148 96.9354 44.9883 94.8693 47.014C93.2806 48.5616 91.744 49.3528 90.3116 49.3528C90.1206 49.3528 89.9296 49.3354 89.7386 49.318C88.7229 49.1789 87.5856 48.7268 86.8737 46.4402C86.1705 44.171 86.3181 41.3106 87.3252 37.9372C88.3582 34.4856 89.9296 31.7121 91.9957 29.6951C93.5844 28.1388 95.121 27.3563 96.5621 27.3563C96.7531 27.3563 96.9441 27.3737 97.1351 27.3911C98.1508 27.5302 99.2881 27.9823 100 30.2689C100.703 32.5381 100.556 35.3985 99.5485 38.7719H99.5398Z" fill="url(#paint6_linear_1324_166)"/>
</g>
<defs>
<filter id="filter0_d_1324_166" x="21.6901" y="1.64148" width="61.7009" height="62.2932" filterUnits="userSpaceOnUse" color-interpolation-filters="sRGB">
<feFlood flood-opacity="0" result="BackgroundImageFix"/>
<feColorMatrix in="SourceAlpha" type="matrix" values="0 0 0 0 0 0 0 0 0 0 0 0 0 0 0 0 0 0 127 0" result="hardAlpha"/>
<feOffset/>
<feGaussianBlur stdDeviation="11.5533"/>
<feComposite in2="hardAlpha" operator="out"/>
<feColorMatrix type="matrix" values="0 0 0 0 0.313636 0 0 0 0 0.794091 0 0 0 0 1 0 0 0 0.45 0"/>
<feBlend mode="normal" in2="BackgroundImageFix" result="effect1_dropShadow_1324_166"/>
<feBlend mode="normal" in="SourceGraphic" in2="effect1_dropShadow_1324_166" result="shape"/>
</filter>
<filter id="filter1_d_1324_166" x="0.279177" y="-14.4405" width="143.566" height="113.877" filterUnits="userSpaceOnUse" color-interpolation-filters="sRGB">
<feFlood flood-opacity="0" result="BackgroundImageFix"/>
<feColorMatrix in="SourceAlpha" type="matrix" values="0 0 0 0 0 0 0 0 0 0 0 0 0 0 0 0 0 0 127 0" result="hardAlpha"/>
<feOffset/>
<feGaussianBlur stdDeviation="11.5533"/>
<feComposite in2="hardAlpha" operator="out"/>
<feColorMatrix type="matrix" values="0 0 0 0 0.313636 0 0 0 0 0.794091 0 0 0 0 1 0 0 0 0.45 0"/>
<feBlend mode="normal" in2="BackgroundImageFix" result="effect1_dropShadow_1324_166"/>
<feBlend mode="normal" in="SourceGraphic" in2="effect1_dropShadow_1324_166" result="shape"/>
</filter>
<filter id="filter2_d_1324_166" x="60.7191" y="1.64148" width="65.4182" height="73.426" filterUnits="userSpaceOnUse" color-interpolation-filters="sRGB">
<feFlood flood-opacity="0" result="BackgroundImageFix"/>
<feColorMatrix in="SourceAlpha" type="matrix" values="0 0 0 0 0 0 0 0 0 0 0 0 0 0 0 0 0 0 127 0" result="hardAlpha"/>
<feOffset/>
<feGaussianBlur stdDeviation="11.5533"/>
<feComposite in2="hardAlpha" operator="out"/>
<feColorMatrix type="matrix" values="0 0 0 0 0.313636 0 0 0 0 0.794091 0 0 0 0 1 0 0 0 0.45 0"/>
<feBlend mode="normal" in2="BackgroundImageFix" result="effect1_dropShadow_1324_166"/>
<feBlend mode="normal" in="SourceGraphic" in2="effect1_dropShadow_1324_166" result="shape"/>
</filter>
<linearGradient id="paint0_linear_1324_166" x1="91.305" y1="39.185" x2="81.7848" y2="54.9258" gradientUnits="userSpaceOnUse">
<stop stop-color="#070826"/>
<stop offset="1" stop-opacity="0"/>
</linearGradient>
<linearGradient id="paint1_linear_1324_166" x1="75.6567" y1="61.1872" x2="71.2788" y2="82.358" gradientUnits="userSpaceOnUse">
<stop stop-color="#070826"/>
<stop offset="1" stop-opacity="0"/>
</linearGradient>
<linearGradient id="paint2_linear_1324_166" x1="35.7066" y1="71.26" x2="21.7818" y2="92.1582" gradientUnits="userSpaceOnUse">
<stop stop-color="#070826"/>
<stop offset="1" stop-opacity="0"/>
</linearGradient>
<linearGradient id="paint3_linear_1324_166" x1="36.0841" y1="45.6629" x2="24.043" y2="74.409" gradientUnits="userSpaceOnUse">
<stop stop-color="#070826"/>
<stop offset="1" stop-opacity="0"/>
</linearGradient>
<linearGradient id="paint4_linear_1324_166" x1="53.0604" y1="43.8655" x2="54.1314" y2="26.4099" gradientUnits="userSpaceOnUse">
<stop stop-color="#AFFF71"/>
<stop offset="1" stop-color="#4EB2D1"/>
</linearGradient>
<linearGradient id="paint5_linear_1324_166" x1="75.33" y1="89.1093" x2="78.353" y2="15.5067" gradientUnits="userSpaceOnUse">
<stop stop-color="#AFFF71"/>
<stop offset="1" stop-color="#4EB2D1"/>
</linearGradient>
<linearGradient id="paint6_linear_1324_166" x1="94.0728" y1="57.1006" x2="96.5383" y2="27.6557" gradientUnits="userSpaceOnUse">
<stop stop-color="#AFFF71"/>
<stop offset="1" stop-color="#4EB2D1"/>
</linearGradient>
</defs>
</svg>
